<?xml version="1.0" encoding="iso-8859-1"?>
<!-- Generator: Adobe Illustrator 19.0.0, SVG Export Plug-In . SVG Version: 6.00 Build 0)  -->
<svg version="1.1" id="Layer_1" xmlns="http://www.w3.org/2000/svg" xmlns:xlink="http://www.w3.org/1999/xlink" x="0px" y="0px"
	 viewBox="0 0 512 512" style="enable-background:new 0 0 512 512;" xml:space="preserve">
<g>
	<g>
		<path d="M474.056,9.481H37.944C17.019,9.481,0,26.5,0,47.421v284.43v37.838c0,20.963,17.019,38.014,37.944,38.014h436.111
			c20.926,0,37.944-17.051,37.944-38.014v-37.838V47.421C512,26.5,494.981,9.481,474.056,9.481z M493.037,369.69
			c0,10.505-8.518,19.051-18.981,19.051H37.944c-10.463,0-18.981-8.546-18.981-19.051v-28.357h474.074V369.69z M493.037,322.37
			H18.963V47.421c0-10.463,8.519-18.977,18.981-18.977h436.111c10.463,0,18.981,8.514,18.981,18.977V322.37z"/>
	</g>
</g>
<g>
	<g>
		<path d="M92.037,59.667c-3.704-3.704-9.704-3.704-13.407,0L50.185,88.111c-3.704,3.704-3.704,9.704,0,13.407
			c1.852,1.852,4.278,2.778,6.704,2.778c2.426,0,4.852-0.926,6.704-2.778l28.444-28.444C95.741,69.37,95.741,63.37,92.037,59.667z"
			/>
	</g>
</g>
<g>
	<g>
		<path d="M163.259,64.296c-3.704-3.704-9.704-3.704-13.407,0l-99.667,99.667c-3.704,3.704-3.704,9.704,0,13.407
			c1.852,1.852,4.278,2.778,6.704,2.778c2.426,0,4.852-0.926,6.704-2.778l99.667-99.667C166.963,74,166.963,68,163.259,64.296z"/>
	</g>
</g>
<g>
	<g>
		<polygon points="293.926,483.556 293.926,426.667 274.963,426.667 274.963,483.556 237.037,483.556 237.037,426.667 
			218.074,426.667 218.074,483.556 170.667,483.556 170.667,502.518 341.333,502.518 341.333,483.556 		"/>
	</g>
</g>
<g>
</g>
<g>
</g>
<g>
</g>
<g>
</g>
<g>
</g>
<g>
</g>
<g>
</g>
<g>
</g>
<g>
</g>
<g>
</g>
<g>
</g>
<g>
</g>
<g>
</g>
<g>
</g>
<g>
</g>
</svg>
